<?xml version="1.0" encoding="utf-8"?>
<!-- Generator: Adobe Illustrator 16.0.0, SVG Export Plug-In . SVG Version: 6.00 Build 0)  -->
<!DOCTYPE svg PUBLIC "-//W3C//DTD SVG 1.1//EN" "http://www.w3.org/Graphics/SVG/1.1/DTD/svg11.dtd">
<svg version="1.1" id="Layer_1" xmlns="http://www.w3.org/2000/svg" xmlns:xlink="http://www.w3.org/1999/xlink" x="0px" y="0px"
	 width="24px" height="17.833px" viewBox="0 0 24 17.833" enable-background="new 0 0 24 17.833" xml:space="preserve">
<g id="Layer_1_1_" display="none">
	<g id="_x31__speaker_off" display="inline">
		<g>
			<polygon fill="#FFFFFF" points="-140.305,-182.025 -140.305,-185.918 -140.305,-189.282 -145.248,-186.969 			"/>
			<polygon fill="#FFFFFF" points="-148.308,-185.918 -152.283,-185.918 -152.283,-177.082 -147.494,-177.082 -140.305,-173.717 
				-140.305,-177.082 -140.305,-177.915 			"/>
		</g>
		
			<rect x="-142.627" y="-194.907" transform="matrix(0.7116 -0.7026 0.7026 0.7116 86.4776 -151.8633)" fill="#FFFFFF" width="1.806" height="27.297"/>
	</g>
</g>
<g id="Layer_2">
	<path fill="#FFFFFF" d="M1.373,6.209h4.25l5.667-4.25v14.168l-5.667-4.25h-4.25V6.209z M22.624,9.043
		c0.071,3.032-1.077,5.967-3.187,8.146l-2.127-2.126c1.594-1.598,2.485-3.764,2.479-6.021c0.006-2.256-0.888-4.423-2.479-6.021
		l2.127-2.126C21.547,3.076,22.695,6.011,22.624,9.043 M17.666,9.043c-0.051,1.661-0.829,3.213-2.125,4.25l-1.771-1.771
		c0.75-0.593,1.149-1.526,1.062-2.479c0.087-0.953-0.312-1.886-1.062-2.479l1.771-1.771C16.837,5.83,17.615,7.384,17.666,9.043"/>
</g>
</svg>
