<?xml version="1.0" encoding="utf-8"?>
<!-- Generator: Adobe Illustrator 16.0.0, SVG Export Plug-In . SVG Version: 6.00 Build 0)  -->
<!DOCTYPE svg PUBLIC "-//W3C//DTD SVG 1.1//EN" "http://www.w3.org/Graphics/SVG/1.1/DTD/svg11.dtd">
<svg version="1.1" id="Layer_1" xmlns="http://www.w3.org/2000/svg" xmlns:xlink="http://www.w3.org/1999/xlink" x="0px" y="0px"
	 width="24.958px" height="27.875px" viewBox="0 0 24.958 27.875" enable-background="new 0 0 24.958 27.875" xml:space="preserve">
<path fill="#010101" d="M22.581,27.163c-1.763,0.822-5.875,3.225-12.505-9.98C3.5,4.09,7.897,2.054,9.517,1.194
	C9.557,1.173,11.888,0.001,11.89,0l3.933,7.829l-2.345,1.178c-2.466,1.348,2.668,11.576,5.19,10.328
	c0.102-0.047,2.316-1.155,2.326-1.16l3.963,7.803C24.95,25.981,22.717,27.1,22.581,27.163 M13.526,26.333l-1.244-1.604
	c-1.722,1.338-4.197,1.468-4.933,0.201c-0.545-0.939-0.36-2.008-0.147-3.245c0.234-1.349,0.499-2.878-0.342-4.31
	c-1.417-2.41-4.527-2.301-6.86-0.777l1.11,1.699c0.963-0.629,2.073-0.9,2.896-0.709c1.921,0.451,1.338,2.935,1.197,3.752
	c-0.246,1.42-0.524,3.031,0.392,4.607C7.035,28.435,10.906,28.368,13.526,26.333"/>
</svg>
