<?xml version="1.0" encoding="utf-8"?>
<!-- Generator: Adobe Illustrator 16.0.0, SVG Export Plug-In . SVG Version: 6.00 Build 0)  -->
<!DOCTYPE svg PUBLIC "-//W3C//DTD SVG 1.1//EN" "http://www.w3.org/Graphics/SVG/1.1/DTD/svg11.dtd">
<svg version="1.1" xmlns="http://www.w3.org/2000/svg" xmlns:xlink="http://www.w3.org/1999/xlink" x="0px" y="0px" width="24px"
	 height="17.833px" viewBox="0 0 24 17.833" enable-background="new 0 0 24 17.833" xml:space="preserve">
<g id="Layer_1" display="none">
	<g id="YHfGBz_1_" display="inline">
		
			<image overflow="visible" width="942" height="344" id="YHfGBz_2_" xlink:href="5E381B41500EC58F.jpg"  transform="matrix(1 0 0 1 -459 -160)">
		</image>
	</g>
	<g id="_x31__speaker_off" display="inline">
		<g>
			<polygon fill="#010101" points="-140.305,-182.025 -140.305,-185.918 -140.305,-189.282 -145.248,-186.969 			"/>
			<polygon fill="#010101" points="-148.308,-185.918 -152.283,-185.918 -152.283,-177.082 -147.494,-177.082 -140.305,-173.717 
				-140.305,-177.082 -140.305,-177.915 			"/>
		</g>
		
			<rect x="-142.63" y="-194.907" transform="matrix(-0.7117 0.7025 -0.7025 -0.7117 -369.9256 -210.6963)" fill="#010101" width="1.806" height="27.297"/>
	</g>
</g>
<g id="Layer_2">
	<path d="M1.413,5.915h4.25l5.667-4.25v14.168l-5.667-4.25h-4.25V5.915z"/>
	<polygon points="21.169,6.608 19.755,5.194 17.614,7.335 15.473,5.194 14.059,6.608 16.2,8.749 14.059,10.891 15.473,12.305 
		17.614,10.163 19.755,12.305 21.169,10.891 19.028,8.749 	"/>
</g>
</svg>
